<?xml version="1.0" encoding="utf-8"?><!-- Uploaded to: SVG Repo, www.svgrepo.com, Generator: SVG Repo Mixer Tools -->
<svg version="1.1" id="Uploaded to svgrepo.com" xmlns="http://www.w3.org/2000/svg" xmlns:xlink="http://www.w3.org/1999/xlink" 
	 width="800px" height="800px" viewBox="0 0 32 32" xml:space="preserve">
<style type="text/css">
	.sharpcorners_een{fill:#111918;}
	.st0{fill:#111918;}
</style>
<path class="sharpcorners_een" d="M11.902,5.805L17.707,0h2.586l-7.529,7.529L11.902,5.805z M19.129,9.578l-8.045,8.045L11,18v2.293
	l8.599-8.599L19.129,9.578z M16.293,0H11v4l0.431,0.862L16.293,0z M18.293,9H13l-1.512,6.805L18.293,9z M16,32l5-3v-5.293
	l-7.058,7.058L16,32z M13.058,30.235L21,22.293v-2.586l-9.558,9.558L13.058,30.235z M13.707,8H19l2-4V0.707L13.707,8z M11,21.707
	v6.586l10-10V18l-1.144-5.149L11,21.707z"/>
</svg>